<svg id="visual" viewBox="0 0 900 600" width="900" height="600" xmlns="http://www.w3.org/2000/svg" xmlns:xlink="http://www.w3.org/1999/xlink" version="1.1"><rect x="0" y="0" width="900" height="600" fill="#ffece6"></rect><path d="M0 484L37.5 486.5C75 489 150 494 225 494C300 494 375 489 450 483C525 477 600 470 675 471.8C750 473.7 825 484.3 862.5 489.7L900 495L900 601L862.5 601C825 601 750 601 675 601C600 601 525 601 450 601C375 601 300 601 225 601C150 601 75 601 37.5 601L0 601Z" fill="#fdbf6b"></path><path d="M0 505L37.5 509.8C75 514.7 150 524.3 225 529.2C300 534 375 534 450 531.5C525 529 600 524 675 519.8C750 515.7 825 512.3 862.5 510.7L900 509L900 601L862.5 601C825 601 750 601 675 601C600 601 525 601 450 601C375 601 300 601 225 601C150 601 75 601 37.5 601L0 601Z" fill="#feab41"></path><path d="M0 560L37.5 560.2C75 560.3 150 560.7 225 558.8C300 557 375 553 450 553.5C525 554 600 559 675 560.7C750 562.3 825 560.7 862.5 559.8L900 559L900 601L862.5 601C825 601 750 601 675 601C600 601 525 601 450 601C375 601 300 601 225 601C150 601 75 601 37.5 601L0 601Z" fill="#ff9500"></path></svg>